<?xml version="1.0" encoding="utf-8"?>
<!-- Generator: Adobe Illustrator 15.0.0, SVG Export Plug-In . SVG Version: 6.00 Build 0)  -->
<!DOCTYPE svg PUBLIC "-//W3C//DTD SVG 1.1//EN" "http://www.w3.org/Graphics/SVG/1.1/DTD/svg11.dtd">
<svg version="1.1" id="Capa_1" xmlns="http://www.w3.org/2000/svg" xmlns:xlink="http://www.w3.org/1999/xlink" x="0px" y="0px"
	 width="612px" height="792px" viewBox="0 0 612 792" enable-background="new 0 0 612 792" xml:space="preserve">
<g id="_x37_7_Essential_Icons_45_">
	<path id="Photo" fill="#09293C" d="M612,587.491V202.576c0-8.858-7.247-16.105-16.105-16.105H16.105
		C7.248,186.471,0,193.718,0,202.576v386.527c0,20.131,26.574,16.104,16.105,16.104h579.789l0,0
		C620.053,605.207,608.779,568.165,612,587.491z M48.316,572.997l177.158-231.111l148.169,194.069l0,0l28.184,37.042H48.316
		L48.316,572.997z M442.895,572.997l-36.236-46.705l60.395-78.916l95.826,125.621H442.895L442.895,572.997z M579.789,540.786
		l-99.853-130.452c-6.441-8.858-19.326-8.858-25.769,0l-67.642,88.578L238.358,305.649c-6.442-8.858-19.326-8.858-25.769,0
		L32.21,541.592V218.681h547.579V540.786z M394.579,266.997c-31.405,0-56.368,24.963-56.368,56.368s24.963,56.369,56.368,56.369
		s56.368-24.963,56.368-56.369S425.179,266.997,394.579,266.997z M394.579,347.523c-12.885,0-24.158-10.468-24.158-24.158
		s10.469-24.158,24.158-24.158s24.157,10.468,24.157,24.158S407.463,347.523,394.579,347.523z"/>
</g>
</svg>
